<svg id="skull" xmlns="http://www.w3.org/2000/svg" viewBox="0 0 719.42 649.7">
  <defs>
    <style>
      .cls-1 {
        fill: none;
        stroke: #000;
        stroke-miterlimit: 10;
        stroke-width: 15px;
      }
    </style>
  </defs>
  <path class="cls-1" d="M996.69,268.13s168.35-17.72,221.52,211.4c45.33,195.35-82.36,216.77-121,218.84a11.3,11.3,0,0,0-10.69,11.28V786.8a11.07,11.07,0,0,1-3.15,7.83c-5.35,5.39-10.6,6-15.77,2.6a11.11,11.11,0,0,0-12.35.09c-4.51,3.07-9.13,2.45-13.81-.56a11.12,11.12,0,0,0-12.56.16c-4.14,3-8.13,3.1-12,.57a11.38,11.38,0,0,0-12.66-.07q-5.46,3.74-10.39.31a11.36,11.36,0,0,0-12.68-.29c-3.82,2.43-7.6,2.68-11.34.07a11.17,11.17,0,0,0-12.49-.27q-7,4.41-13.93-.43a11.19,11.19,0,0,0-12.51-.18c-6.29,4.19-11.78,3.57-16.4-2.14a11.08,11.08,0,0,1-2.41-7V709.65a11.3,11.3,0,0,0-10.68-11.28c-38.61-2.07-166.3-23.49-121-218.84C833.64,250.41,1002,268.13,1002,268.13M911.12,433.27l25.53-36.35c5.49-7.82,14.39-7.82,19.89,0l25.05,35.69c8.82,12.55,2.65,34-9.81,34.19l-50.58.66C908.61,467.63,902.22,446,911.12,433.27Z" transform="translate(-638.57 -176.67)"/>
  <path class="cls-1" d="M999.34,517.45l12,21a11.87,11.87,0,0,1-2.84,15.14h0a14.61,14.61,0,0,1-18.37,0h0a11.87,11.87,0,0,1-2.85-15.14Z" transform="translate(-638.57 -176.67)"/>
  <path class="cls-1" d="M1017.09,433.27l25.52-36.35c5.5-7.82,14.4-7.82,19.89,0l25.06,35.69c8.82,12.55,2.65,34-9.82,34.19l-50.57.66C1014.58,467.63,1008.19,446,1017.09,433.27Z" transform="translate(-638.57 -176.67)"/>
  <path class="cls-1" d="M924.29,678.67c52.42-21.16,102.39-19.42,150.1,0" transform="translate(-638.57 -176.67)"/>
  <line class="cls-1" x1="311.52" y1="472.39" x2="317.73" y2="514.27"/>
  <line class="cls-1" x1="406.93" y1="472.39" x2="400.72" y2="514.27"/>
  <line class="cls-1" x1="359.22" y1="468.05" x2="359.22" y2="509.94"/>
  <path class="cls-1" d="M1134.22,321.71l76.6-66.26a25.59,25.59,0,0,0,8-29.56l-6-15.18c-1-3.25-.38-9,2.6-14.21,14.4-25.41,38-8.32,43.64,22a39.26,39.26,0,0,0,31.52,31.51c30.36,5.61,47.45,29.25,22,43.65-5.25,3-11,3.65-14.2,2.6l-15.18-6a25.6,25.6,0,0,0-29.56,8l-75.6,74.21" transform="translate(-638.57 -176.67)"/>
  <path class="cls-1" d="M1213.05,628l66.16,76.71a25.6,25.6,0,0,0,29.56,8l15.18-6c3.25-1,9-.38,14.2,2.6,25.42,14.4,8.33,38-22,43.65a39.28,39.28,0,0,0-31.52,31.51c-5.6,30.36-29.24,47.45-43.64,22-3-5.25-3.65-11-2.6-14.21l6-15.18a25.59,25.59,0,0,0-8-29.56l-73.75-69.11" transform="translate(-638.57 -176.67)"/>
  <path class="cls-1" d="M829.73,679.17l-69.51,62.71a25.57,25.57,0,0,0-8,29.55l6,15.18c1,3.26.38,9-2.59,14.21-14.41,25.41-38.05,8.32-43.65-22a39.25,39.25,0,0,0-31.52-31.52c-30.36-5.6-47.45-29.24-22-43.65,5.25-3,11-3.64,14.21-2.59l15.17,6a25.58,25.58,0,0,0,29.56-8l71.81-71.06" transform="translate(-638.57 -176.67)"/>
  <path class="cls-1" d="M817.09,378.49,745,298.32a25.58,25.58,0,0,0-29.55-8l-15.18,6c-3.25,1.05-9,.38-14.21-2.6-25.41-14.4-8.32-38,22-43.65a39.25,39.25,0,0,0,31.52-31.51c5.6-30.36,29.24-47.45,43.65-22,3,5.25,3.65,11,2.59,14.21l-6,15.18a25.59,25.59,0,0,0,8,29.56L865.2,321" transform="translate(-638.57 -176.67)"/>
</svg>
